# xmcd
#
# Track frame offsets: 
#        150
#        13108
#        26547
#        37374
#        54024
#        71967
#        86162
#        104196
#        117077
#        132519
#        152040
#        174785
#        188748
#
# Disc length: 2779 seconds
#
# Revision: 0
# Processed by: cddbd v1.5.2PL0 Copyright (c) Steve Scherf et al.
# Submitted via: ExactAudioCopy v1.2
#
DISCID=b30ad90d
DTITLE=Oscar Wilson - One Room Blues
DYEAR=2017
DGENRE=Blues
TTITLE0=When I Was Young
TTITLE1=Lost Mind
TTITLE2=Found Love
TTITLE3=Blackjack
TTITLE4=Reconsider Baby
TTITLE5=Texas Turnaround
TTITLE6=The River's Invitation
TTITLE7=I'm Lost Without You
TTITLE8=Farther Up The Road
TTITLE9=Your Letter
TTITLE10=Every Day I Have The Blues
TTITLE11=One Room Country Shack
TTITLE12=Happy Reunion
EXTD=
EXTT0=
EXTT1=
EXTT2=
EXTT3=
EXTT4=
EXTT5=
EXTT6=
EXTT7=
EXTT8=
EXTT9=
EXTT10=
EXTT11=
EXTT12=
PLAYORDER=
